<svg width="112" height="112" viewBox="0 0 112 112" fill="none" xmlns="http://www.w3.org/2000/svg">
    <path d="M67.515 10.7184C67.4425 10.7589 66.4388 11.6073 65.3 12.6027C64.1519 13.6041 63.2039 14.4164 63.1886 14.4132C63.1733 14.4099 63.1831 14.3641 63.219 14.3078C63.255 14.2516 63.2314 14.1747 63.1523 14.1338C63.0808 14.0946 62.9464 13.9382 62.8409 13.7958C62.4677 13.261 61.9181 12.6166 61.6374 12.397C61.372 12.1806 61.3567 12.1774 61.4283 12.3284C61.5224 12.5242 60.5485 11.0225 59.9992 10.1146C59.7996 9.77648 59.5663 9.44715 59.4997 9.38502C59.3102 9.22479 58.6057 9.19442 58.351 9.33983C58.2322 9.41034 57.4431 10.3764 56.5985 11.4904C54.6226 14.0887 54.4156 14.3481 54.3696 14.2264C54.3504 14.1664 54.3739 14.1315 54.4121 14.1396C54.5802 14.1755 54.5178 14.0184 54.3234 13.8811C54.2109 13.8092 54.0247 13.6337 53.9083 13.505C53.792 13.3764 53.6675 13.2859 53.6244 13.3007C53.5889 13.3171 52.8084 12.5196 51.8999 11.5351C50.9931 10.543 50.1853 9.72372 50.1089 9.70743C49.872 9.65693 49.2271 9.75909 49.0756 9.87056C48.9998 9.9263 48.642 10.5929 48.2799 11.3545C47.9118 12.1067 47.32 13.3465 46.9579 14.1081C46.5975 14.862 46.2893 15.4833 46.2708 15.4953C46.2599 15.5089 45.1301 14.7009 43.7606 13.706C42.3987 12.7127 41.2094 11.884 41.133 11.8677C40.9267 11.8237 40.2013 12.1164 40.052 12.2923C39.9833 12.3894 39.6734 13.5056 39.2762 15.1064C38.9176 16.5637 38.5774 17.8971 38.517 18.0679L38.412 18.373L35.5602 17.0621C32.9841 15.8818 32.6822 15.7615 32.4487 15.8076C32.1247 15.8663 31.7856 16.1455 31.7318 16.3976C31.6943 16.5734 31.4261 22.0279 31.4386 22.4939L31.4377 22.6854L28.3268 21.9902C26.6185 21.6101 25.1406 21.3109 25.0423 21.322C24.8443 21.3516 24.5145 21.6248 24.3887 21.8776C24.2928 22.0648 24.2873 22.0157 24.9276 25.9066C25.1198 27.0659 25.2906 28.1008 25.3032 28.1914C25.3301 28.3649 25.281 28.3704 23.5715 28.3334C18.9344 28.2395 18.8057 28.244 18.569 28.4172C18.1296 28.7549 18.1483 28.8547 19.364 32.0695C19.9839 33.6954 20.4906 35.0656 20.4961 35.1147C20.494 35.1622 19.0609 35.4398 17.3102 35.7455C15.5595 36.0512 14.0697 36.3327 14.0064 36.3671C13.8183 36.4628 13.6479 36.8499 13.677 37.0877C13.6924 37.2029 14.4926 38.5078 15.4545 39.9909C16.4148 41.4817 17.1729 42.7218 17.1434 42.7474C17.1124 42.7808 15.7106 43.3606 14.0258 44.0319C10.7686 45.3344 10.6142 45.4214 10.7866 45.8495C10.8265 45.9619 11.8557 47.0919 13.0749 48.3424C14.2924 49.6005 15.3237 50.6831 15.3658 50.748C15.4336 50.8423 14.9325 51.2067 12.6037 52.7632C10.1156 54.4294 9.74755 54.6945 9.70357 54.9008C9.67588 55.0307 9.70279 55.2041 9.76454 55.2892C9.82028 55.365 11.0991 56.2607 12.5941 57.2664C14.0952 58.2814 15.338 59.1215 15.3653 59.1433C15.3909 59.1727 14.9031 59.6998 14.2823 60.3263C11.068 63.5632 10.6657 63.9886 10.558 64.2692L10.4486 64.5574L12.9193 65.5954C14.2758 66.1642 15.7421 66.7804 16.1826 66.9622C16.6155 67.1423 16.9611 67.3198 16.9545 67.3504C16.9464 67.3886 16.1178 68.6897 15.1083 70.2399C14.0972 71.7977 13.2278 73.178 13.1679 73.309L13.0623 73.5421L15.8021 74.1422C17.3057 74.4708 18.34 74.7152 18.1042 74.6969C17.8685 74.6786 17.7108 74.6689 17.7626 74.688C18.0143 74.7816 19.8467 75.4039 19.9291 75.4295C19.9749 75.4392 20.0061 75.5178 19.9882 75.6018C19.9295 75.8769 17.8745 80.9825 17.6752 81.3554C17.5025 81.678 17.4927 81.7239 17.5894 81.8324C17.6665 81.9207 17.7674 81.9342 18.0222 81.9007C18.3752 81.8561 21.708 81.8477 21.8652 81.8972C21.9094 81.9146 21.8663 81.9294 21.7512 81.9448L21.5488 81.9576L21.7432 82.0949C21.9681 82.2387 22.8436 82.4413 23.9127 82.5973C24.4726 82.6688 24.6319 82.6708 24.676 82.5763C24.8241 82.2564 24.154 86.4112 23.7533 88.2908C23.5724 89.1389 23.6217 89.2453 24.1202 89.08C24.4033 88.9886 27.0398 88.4243 27.1239 88.4423C27.1468 88.4471 27.131 88.4837 27.1 88.517C26.9975 88.623 27.3644 88.8131 27.8916 88.9255C28.1896 88.989 28.649 89.0071 29.0877 88.9728C29.4865 88.938 30.0447 88.9052 30.336 88.8874L30.862 88.8558L30.8929 89.1979C30.9879 90.2885 31.0884 94.0883 31.0319 94.3159C30.8248 95.0626 31.1426 95.2582 31.798 94.8068C32.1998 94.533 34.2707 93.6245 33.9998 93.8463C33.8836 93.9414 33.894 93.9676 34.0688 94.0847C34.4411 94.3238 35.2127 94.3765 35.9137 94.1985C36.816 93.9754 37.9724 93.6468 38.0897 93.584C38.1606 93.5512 38.2075 93.5931 38.2382 93.7115C38.2645 93.813 38.5325 94.9165 38.8339 96.163C39.1446 97.4035 39.3656 98.4651 39.3389 98.5153C39.3046 98.5639 39.2884 98.7522 39.2907 98.9285C39.3058 99.1953 39.3478 99.2601 39.5323 99.3314C39.7016 99.3995 39.8107 99.3748 40.0348 99.2229C40.1924 99.1207 40.3106 98.9781 40.3084 98.9138C40.2985 98.8477 40.6207 98.5729 41.089 98.2494C41.5482 97.9319 41.8644 97.7597 41.8312 97.8405C41.7932 97.9442 41.8336 98.0168 41.9919 98.0984C42.5139 98.3855 43.3229 98.2624 44.2702 97.7534C45.2916 97.1963 45.8588 96.9338 46.1245 96.8866C46.2996 96.8521 46.3754 96.7963 46.3611 96.7134C46.3188 96.4248 46.5731 96.9184 47.4951 98.8883C48.1918 100.379 48.4369 100.99 48.3791 101.074C48.3339 101.136 48.3423 101.322 48.3861 101.491C48.4611 101.738 48.5141 101.79 48.7586 101.842C49.0107 101.895 49.0707 101.876 49.256 101.644C49.3868 101.48 49.4483 101.342 49.4264 101.257C49.3969 101.171 49.5527 100.965 49.9392 100.576C50.2449 100.265 50.4679 100.081 50.4424 100.164C50.3901 100.296 50.4403 100.323 50.7869 100.421C51.526 100.626 51.9715 100.41 53.5896 99.0773C53.9287 98.7981 54.3939 98.4899 54.6387 98.3903C54.8744 98.2968 55.0658 98.1858 55.0586 98.1443C55.0591 98.1045 55.0809 98.0772 55.1039 98.0821C55.1268 98.087 55.7267 98.8699 56.4349 99.8197C57.4037 101.121 57.7042 101.584 57.6749 101.722C57.6614 101.823 57.7293 102.029 57.8315 102.186C58.0058 102.455 58.0331 102.477 58.3032 102.447C58.541 102.418 58.6076 102.368 58.7426 102.109C58.8684 101.856 58.8754 101.786 58.7907 101.696C58.7077 101.598 58.73 101.531 58.9893 101.139C59.1533 100.895 59.2732 100.744 59.2585 100.813C59.245 100.914 59.3029 100.942 59.6658 100.964C59.8939 100.981 60.1667 100.975 60.2605 100.947C60.6342 100.843 61.242 100.277 61.9815 99.3567C62.8032 98.3496 63.4226 97.8426 63.8656 97.8253C64.0757 97.8141 64.0773 97.8065 63.967 97.6871C63.6119 97.2919 64.0865 97.6886 66.7577 100.071C66.9592 100.25 67.0298 100.369 67.0021 100.499C66.9793 100.606 67.046 100.78 67.1515 100.922L67.34 101.162L67.6978 101.095C68.0235 101.028 68.053 101.003 68.141 100.702C68.2194 100.447 68.2116 100.333 68.1149 100.225C68.0078 100.09 68.0116 100.035 68.1531 99.7459C68.2571 99.5204 68.2991 99.4734 68.2976 99.5929C68.2863 99.7583 68.2939 99.7599 68.6469 99.7153C69.3436 99.6322 69.8386 99.1466 70.4751 97.8844C71.0017 96.8384 71.2534 96.4447 71.6219 96.1399C71.9659 95.8378 72.471 95.6419 72.7738 95.6825C72.8748 95.6961 72.9517 95.6725 72.9369 95.6294C72.9014 95.534 72.9379 95.5498 74.5792 96.5068C75.7519 97.1881 75.9114 97.302 75.8804 97.4472C75.856 97.5618 75.9298 97.6654 76.1149 97.8087L76.3852 98.0021L76.7119 97.8561C76.9077 97.7621 77.027 97.6517 77.0095 97.5841C76.9996 97.5181 77.0153 97.3696 77.0414 97.2474C77.0739 97.0946 77.046 97.0007 76.9456 96.9474C76.8527 96.8956 76.8155 96.8078 76.846 96.7025C76.8813 96.5742 76.8906 96.5682 76.8984 96.6817C76.9045 96.8028 76.9536 96.7973 77.2666 96.6404C77.8371 96.3626 78.1154 95.9187 78.4547 94.7768C79.0186 92.8441 79.2179 92.4712 79.8925 92.0798C80.3385 91.8235 80.9185 91.7634 81.646 91.9105C82.0602 91.9908 82.1399 91.9918 81.9739 91.9085C81.7714 91.8094 81.773 91.8018 81.9504 91.8316C82.059 91.8468 82.5399 91.9892 83.0251 92.1486C83.8171 92.4053 83.9039 92.4478 83.9112 92.6011C83.9173 92.7223 84.008 92.8215 84.2181 92.9222C84.5059 93.0714 84.5304 93.0687 84.8052 92.9036C85.0817 92.7309 85.0959 92.7019 85.0814 92.3953C85.079 92.2191 85.0275 92.0483 84.9789 92.014C84.9227 91.978 84.8866 91.9224 84.8964 91.8766C84.9045 91.8384 84.9384 91.8296 84.9717 91.8607C85.005 91.8917 85.132 91.783 85.2644 91.6116C85.5527 91.2337 85.7341 90.4576 85.7827 89.4055C85.8178 88.5663 85.9861 87.7394 86.192 87.336C86.2894 87.1411 86.4988 86.9461 86.8123 86.7493C87.356 86.4099 87.8628 86.3182 89.1543 86.33C90.2009 86.3295 90.7426 86.2612 90.7229 86.1292C90.6916 85.9388 90.8144 86.0369 90.8534 86.2289C90.8852 86.3795 90.9595 86.4433 91.2313 86.5172C91.5702 86.6134 91.5795 86.6074 91.8209 86.2994L92.0623 85.9914L91.9436 85.6865C91.8664 85.4863 91.7714 85.3702 91.6431 85.3349L91.4537 85.2865L91.6561 85.2738C91.9966 85.2505 92.0484 84.6704 91.8557 83.0637C91.6889 81.5982 91.7195 81.1175 92.0409 80.6588C92.4779 80.033 93.0576 79.7492 94.3647 79.5007C95.2725 79.3268 95.8016 79.168 96.1321 78.9669C96.342 78.8439 96.3764 78.7953 96.3135 78.678C96.2599 78.5548 96.2599 78.5548 96.3566 78.6632C96.432 78.7592 96.5389 78.782 96.821 78.7703C97.1506 78.7606 97.1953 78.7382 97.2933 78.5035C97.3896 78.2764 97.3737 78.2011 97.207 77.9339C97.1065 77.7687 96.9732 77.6444 96.9164 77.6483C96.8657 77.6614 96.7838 77.5961 96.739 77.5066C96.6657 77.3632 96.675 77.3572 96.776 77.4826C97.1066 77.8805 97.0278 77.2008 96.5965 75.9266C96.18 74.6955 96.089 74.2607 96.1289 73.7739C96.2033 72.975 96.7424 72.395 97.8719 71.8929C99.3805 71.224 99.6319 71.0939 99.9344 70.7989C100.113 70.6372 100.281 70.4095 100.311 70.3042C100.35 70.1606 100.434 70.1065 100.675 70.0621C100.931 70.0209 100.988 69.9772 101.031 69.7785C101.066 69.6104 101.021 69.4888 100.862 69.2952C100.74 69.1573 100.611 69.0499 100.563 69.0478C100.482 69.0544 99.5795 67.9674 99.5974 67.8833C99.6023 67.8604 99.6613 67.9209 99.7291 68.0152C99.7968 68.1095 99.8804 68.1673 99.9082 68.1493C99.9453 68.1252 99.7583 67.7658 99.5047 67.3443C98.8712 66.3066 98.7228 65.8037 98.8689 65.1558C99.0188 64.4529 99.2924 64.1437 100.495 63.2978C101.735 62.4279 102.058 62.0734 102.201 61.4409C102.28 61.1063 102.276 60.9775 102.212 60.9798C102.029 60.9729 102.114 60.9111 102.518 60.7415C103.017 60.5364 103.064 60.3547 102.703 60.062C102.56 59.9438 102.399 59.8375 102.353 59.8278C102.17 59.7887 100.112 57.976 100.182 57.911C100.216 57.8624 100.203 57.8515 100.15 57.8723C100.09 57.8914 99.9941 57.855 99.9351 57.7945C99.8351 57.7013 99.8384 57.686 99.9312 57.7377C100.024 57.7895 100.01 57.6667 99.893 57.2423C99.7463 56.7317 99.7445 56.6275 99.8674 56.2383C100.014 55.7744 100.547 55.0012 101.096 54.4872C101.265 54.3315 101.572 53.9738 101.783 53.6991C102.224 53.1301 102.411 52.5149 102.293 52.0185C102.233 51.7741 102.201 51.7354 102.084 51.7983C102.004 51.8371 102.159 51.6705 102.428 51.4241C102.863 51.0297 102.901 50.9659 102.804 50.8574C102.745 50.7969 101.928 50.3192 100.985 49.7985C99.0887 48.7632 98.6628 48.5127 98.8707 48.549C98.9411 48.556 99.0039 48.5614 99.0071 48.5461C99.0088 48.5385 98.9862 48.3819 98.961 48.2008C98.8697 47.5423 99.0596 47.0635 100.009 45.5326C100.658 44.4728 100.802 43.6487 100.437 43.1154C100.309 42.9284 100.264 42.911 100.191 42.9913C99.9865 43.2032 100.135 42.9553 100.464 42.5381L100.814 42.0936L100.726 41.7952C100.623 41.4537 100.806 41.5327 98.3274 40.7566C96.7494 40.2524 95.8815 39.9396 96.2668 40.0057C96.3983 40.0258 96.4337 40.0094 96.3889 39.92C96.2079 39.5698 96.4186 38.5443 96.9258 37.3265C97.1343 36.8357 97.2847 36.0929 97.2636 35.705C97.2519 35.5348 97.1365 35.2146 97.0014 34.9861C96.7795 34.6033 96.7506 34.5891 96.6236 34.6978C96.5058 34.8006 96.4998 34.7913 96.5896 34.5948C96.6479 34.4714 96.7737 34.2186 96.8788 34.0253C97.0813 33.6372 97.1711 33.3288 97.137 33.1138C97.087 32.8236 96.8212 32.7589 94.6619 32.5462C92.4491 32.3221 92.0834 32.2761 92.1275 32.1816C92.1417 32.1527 92.1452 31.8739 92.1416 31.5536C92.138 31.2333 92.1714 30.7771 92.2235 30.5326C92.3864 29.7685 92.4388 28.7732 92.3418 28.3291C92.2343 27.8589 91.7142 27.1888 91.5894 27.3619C91.5567 27.4029 91.6131 27.0634 91.7185 26.6066C91.8369 26.0887 91.8894 25.6925 91.8495 25.5801C91.7865 25.351 91.6063 25.1848 91.377 25.1359C91.2853 25.1163 90.1963 25.2037 88.9551 25.3305C86.4803 25.5857 86.2364 25.6056 86.4028 25.5372C86.4829 25.4984 86.4921 25.3805 86.4235 24.9904C86.3686 24.7231 86.3069 24.1508 86.2847 23.7307C86.2296 22.7524 86.1079 22.1992 85.8522 21.8252C85.6041 21.4528 85.2715 21.2141 85.1674 21.3277C85.1271 21.367 85.1168 20.9654 85.1496 20.4372C85.1839 19.9014 85.1845 19.3743 85.1429 19.2695C85.0542 19.011 84.6791 18.7473 84.4216 18.7563C84.3157 18.7657 83.2684 19.0696 82.0869 19.4408C79.4561 20.2778 79.3039 20.3173 79.4849 20.1801C79.5547 20.1151 79.5814 20.0649 79.5355 20.0551C79.4973 20.047 79.3244 19.5468 79.159 18.9364C78.9919 18.3336 78.7751 17.6643 78.6767 17.4516C78.4634 16.9908 77.9151 16.4904 77.7815 16.6297C77.7287 16.6903 77.6454 16.369 77.5454 15.6767C77.4684 15.1011 77.4057 14.6085 77.4138 14.5703C77.4431 14.4327 77.0362 14.0185 76.7556 13.9107C76.373 13.7572 76.3991 13.7468 74.3711 14.9041C72.3092 16.0701 71.405 16.5643 71.5707 16.4239C71.6482 16.3605 71.6688 16.301 71.6295 16.2607C71.5978 16.222 71.4032 15.861 71.2047 15.4432C70.6792 14.3486 70.5529 14.154 70.1848 13.8199C69.8031 13.4749 69.7086 13.4308 69.7415 13.6135C69.7866 13.9267 69.6646 13.6371 69.27 12.4905C68.6916 10.8575 68.7036 10.876 68.1229 10.7522C67.8631 10.6968 67.5936 10.6873 67.515 10.7184ZM54.0167 13.7837C54.0118 13.8067 53.9238 13.732 53.8135 13.6126C53.7108 13.4949 53.6234 13.3804 53.6266 13.3651C53.6315 13.3422 53.7271 13.4184 53.8298 13.5362C53.9401 13.6556 54.0199 13.7685 54.0167 13.7837ZM54.2193 13.9947C54.2926 14.1381 54.2833 14.1441 54.1899 14.0204C54.0812 13.8933 54.056 13.8241 54.1171 13.8371C54.1324 13.8404 54.1805 13.9145 54.2193 13.9947ZM90.5024 86.1142C90.4227 86.1131 90.3005 86.0871 90.235 86.0571C90.1635 86.0179 90.2278 86.0157 90.373 86.0466C90.5182 86.0776 90.5761 86.1059 90.5024 86.1142ZM81.6742 91.7408C81.6175 91.7447 81.5258 91.7251 81.4832 91.7001C81.4346 91.6657 81.476 91.6586 81.583 91.6814C81.69 91.7042 81.7249 91.7276 81.6742 91.7408Z" fill="#F1DB4B"/>
    <path d="M100.016 68.356C100.074 68.4563 100.136 68.5414 100.151 68.5447C100.167 68.5479 100.151 68.4726 100.115 68.3772C100.08 68.2817 100.018 68.1966 99.9797 68.1885C99.9415 68.1803 99.9574 68.2556 100.016 68.356Z" fill="#F1DB4B"/>
    <path d="M32.371 60.74L28.8753 59.9947L32.4478 43.2385L42.0522 45.2861L41.4316 48.1973L35.3228 46.8949L34.4016 51.2157L40.0863 52.4277L39.4681 55.3274L33.7833 54.1154L32.371 60.74Z" fill="black"/>
    <path d="M47.2972 54.1808L48.4433 54.4251C49.5665 54.6646 50.4355 54.6541 51.0501 54.3938C51.6648 54.1334 52.0577 53.6021 52.2287 52.7998C52.3981 52.0051 52.2436 51.3811 51.7652 50.9276C51.2943 50.4757 50.4859 50.1276 49.3398 49.8833L48.2624 49.6536L47.2972 54.1808ZM46.6815 57.069L45.3106 63.4987L41.7577 62.7412L45.3301 45.985L50.2126 47.0259C52.4895 47.5114 54.0855 48.287 55.0006 49.3528C55.9173 50.4109 56.1956 51.7843 55.8356 53.4729C55.6255 54.4586 55.1669 55.2794 54.4599 55.9355C53.7545 56.5839 52.8587 57.02 51.7725 57.2437C53.4909 61.5482 54.6148 64.332 55.1443 65.5952L51.2017 64.7547L48.5726 57.4722L46.6815 57.069Z" fill="black"/>
    <path d="M66.9035 68.1023L57.2532 66.0448L60.8256 49.2886L70.4759 51.346L69.8553 54.2572L63.7579 52.9572L62.9735 56.6363L68.6468 57.8458L68.0262 60.7569L62.3529 59.5474L61.4317 63.8683L67.529 65.1682L66.9035 68.1023Z" fill="black"/>
    <path d="M80.0609 70.9074L70.4106 68.85L73.983 52.0938L83.6333 54.1512L83.0127 57.0623L76.9153 55.7624L76.131 59.4414L81.8042 60.651L81.1836 63.5621L75.5103 62.3526L74.5891 66.6734L80.6864 67.9734L80.0609 70.9074Z" fill="black"/>
    </svg>
    